<svg xmlns="http://www.w3.org/2000/svg" xmlns:xlink="http://www.w3.org/1999/xlink" width="404" height="240" viewBox="0 0 404 240">
  <defs>
    <filter id="Rectangle_47" x="0" y="2" width="401" height="238" filterUnits="userSpaceOnUse">
      <feOffset dy="3" input="SourceAlpha"/>
      <feGaussianBlur stdDeviation="3" result="blur"/>
      <feFlood flood-opacity="0.161"/>
      <feComposite operator="in" in2="blur"/>
      <feComposite in="SourceGraphic"/>
    </filter>
  </defs>
  <g id="Articles_Img" data-name="Articles Img" transform="translate(9 -0.304)">
    <g transform="matrix(1, 0, 0, 1, -9, 0.3)" filter="url(#Rectangle_47)">
      <rect id="Rectangle_47-2" data-name="Rectangle 47" width="383" height="220" rx="5" transform="translate(9 8)" fill="#fff"/>
    </g>
    <path id="Rectangle_58" data-name="Rectangle 58" d="M5,0H378a5,5,0,0,1,5,5V21a0,0,0,0,1,0,0H0a0,0,0,0,1,0,0V5A5,5,0,0,1,5,0Z" transform="translate(0 0.304)" fill="#2a2a3a"/>
    <path id="Path_138" data-name="Path 138" d="M0,0H121.459V203.244a4.057,4.057,0,0,1-4.049,4.065H0Z" transform="translate(261.541 20.955)" fill="#404053"/>
    <path id="Path_139" data-name="Path 139" d="M0,0H261.541V206.48H4.049A4.049,4.049,0,0,1,0,202.431Z" transform="translate(0 21.784)" fill="#fff"/>
    <g id="article_boxes" data-name="article boxes" transform="translate(19 40)">
      <rect id="Rectangle_81" data-name="Rectangle 81" width="219" height="19" rx="9.5" transform="translate(0 0.305)" fill="#ddd" opacity="0.74"/>
      <rect id="Rectangle_82" data-name="Rectangle 82" width="71" height="11" rx="5.5" transform="translate(0 27.305)" fill="#ddd" opacity="0.74"/>
      <rect id="Rectangle_83" data-name="Rectangle 83" width="219" height="11" rx="5.5" transform="translate(0 47.304)" fill="#ddd" opacity="0.74"/>
      <rect id="Rectangle_84" data-name="Rectangle 84" width="219" height="11" rx="5.5" transform="translate(0 66.304)" fill="#ddd" opacity="0.74"/>
      <rect id="Rectangle_85" data-name="Rectangle 85" width="219" height="11" rx="5.5" transform="translate(0 86.304)" fill="#ddd" opacity="0.74"/>
      <rect id="Rectangle_86" data-name="Rectangle 86" width="219" height="12" rx="6" transform="translate(0 105.305)" fill="#ddd" opacity="0.74"/>
      <rect id="Rectangle_87" data-name="Rectangle 87" width="219" height="46" rx="10" transform="translate(0 124.305)" fill="#ddd" opacity="0.74"/>
    </g>
    <g id="Slider_Bar" data-name="Slider Bar" transform="translate(254 21)">
      <rect id="Rectangle_89" data-name="Rectangle 89" width="8" height="207" transform="translate(0 0.304)" fill="#ddd"/>
      <g id="Group_38" data-name="Group 38" transform="translate(2 91)">
        <ellipse id="Ellipse_25" data-name="Ellipse 25" cx="2" cy="1.5" rx="2" ry="1.5" transform="translate(0 0.305)" fill="#767676"/>
        <circle id="Ellipse_26" data-name="Ellipse 26" cx="2" cy="2" r="2" transform="translate(0 4.305)" fill="#767676"/>
        <circle id="Ellipse_27" data-name="Ellipse 27" cx="2" cy="2" r="2" transform="translate(0 9.304)" fill="#767676"/>
      </g>
    </g>
    <g id="Red_Orange_Green" data-name="Red Orange Green" transform="translate(346 9)">
      <circle id="Ellipse_18" data-name="Ellipse 18" cx="2.5" cy="2.5" r="2.5" transform="translate(18 0.304)" fill="#ff5757"/>
      <circle id="Ellipse_19" data-name="Ellipse 19" cx="2.5" cy="2.5" r="2.5" transform="translate(9 0.304)" fill="#ffa557"/>
      <circle id="Ellipse_20" data-name="Ellipse 20" cx="2.5" cy="2.5" r="2.5" transform="translate(0 0.304)" fill="#43db4e"/>
    </g>
    <g id="Code_Text" data-name="Code Text" transform="translate(278 33)" opacity="0.8">
      <g id="Group_46" data-name="Group 46">
        <rect id="Rectangle_93" data-name="Rectangle 93" width="31" height="6" rx="3" transform="translate(0 0.304)" fill="#4db0f2"/>
        <rect id="Rectangle_94" data-name="Rectangle 94" width="53" height="6" rx="3" transform="translate(42 0.304)" fill="#4db0f2"/>
        <rect id="Rectangle_95" data-name="Rectangle 95" width="31" height="6" rx="3" transform="translate(0 72.304)" fill="#4db0f2"/>
        <rect id="Rectangle_96" data-name="Rectangle 96" width="53" height="6" rx="3" transform="translate(42 72.304)" fill="#4db0f2"/>
        <rect id="Rectangle_97" data-name="Rectangle 97" width="49" height="6" rx="3" transform="translate(8 12.304)" fill="#4db0f2"/>
        <rect id="Rectangle_98" data-name="Rectangle 98" width="31" height="6" rx="3" transform="translate(68 12.304)" fill="#f5f5f5"/>
        <path id="Rectangle_99" data-name="Rectangle 99" d="M3,0H35a3,3,0,0,1,3,3V6a0,0,0,0,1,0,0H3A3,3,0,0,1,0,3V3A3,3,0,0,1,3,0Z" transform="translate(79 24.304)" fill="#f5f5f5"/>
        <rect id="Rectangle_100" data-name="Rectangle 100" width="42" height="6" rx="3" transform="translate(26 24.304)" fill="#4db0f2"/>
        <rect id="Rectangle_101" data-name="Rectangle 101" width="52" height="6" rx="3" transform="translate(47 36.304)" fill="#f5f5f5"/>
        <rect id="Rectangle_102" data-name="Rectangle 102" width="42" height="6" rx="3" transform="translate(26 48.304)" fill="#4db0f2"/>
        <rect id="Rectangle_103" data-name="Rectangle 103" width="49" height="6" rx="3" transform="translate(8 60.304)" fill="#4db0f2"/>
        <rect id="Rectangle_104" data-name="Rectangle 104" width="31" height="6" rx="3" transform="translate(68 60.304)" fill="#f5f5f5"/>
        <path id="Rectangle_105" data-name="Rectangle 105" d="M3,0H38a0,0,0,0,1,0,0V6a0,0,0,0,1,0,0H3A3,3,0,0,1,0,3V3A3,3,0,0,1,3,0Z" transform="translate(79 48.304)" fill="#f5f5f5"/>
      </g>
      <g id="Group_47" data-name="Group 47" transform="translate(0 84)">
        <rect id="Rectangle_93-2" data-name="Rectangle 93" width="31" height="6" rx="3" transform="translate(0 72.304)" fill="#4db0f2"/>
        <rect id="Rectangle_94-2" data-name="Rectangle 94" width="53" height="6" rx="3" transform="translate(42 72.304)" fill="#4db0f2"/>
        <rect id="Rectangle_95-2" data-name="Rectangle 95" width="31" height="6" rx="3" transform="translate(0 0.304)" fill="#4db0f2"/>
        <rect id="Rectangle_96-2" data-name="Rectangle 96" width="53" height="6" rx="3" transform="translate(42 0.304)" fill="#4db0f2"/>
        <rect id="Rectangle_97-2" data-name="Rectangle 97" width="49" height="6" rx="3" transform="translate(8 60.304)" fill="#4db0f2"/>
        <rect id="Rectangle_98-2" data-name="Rectangle 98" width="31" height="6" rx="3" transform="translate(68 60.304)" fill="#f5f5f5"/>
        <rect id="Rectangle_99-2" data-name="Rectangle 99" width="38" height="6" rx="3" transform="translate(79 48.304)" fill="#f5f5f5"/>
        <rect id="Rectangle_100-2" data-name="Rectangle 100" width="42" height="6" rx="3" transform="translate(26 48.304)" fill="#4db0f2"/>
        <rect id="Rectangle_101-2" data-name="Rectangle 101" width="52" height="6" rx="3" transform="translate(47 36.304)" fill="#f5f5f5"/>
        <rect id="Rectangle_102-2" data-name="Rectangle 102" width="42" height="6" rx="3" transform="translate(26 24.304)" fill="#4db0f2"/>
        <rect id="Rectangle_103-2" data-name="Rectangle 103" width="49" height="6" rx="3" transform="translate(8 12.304)" fill="#4db0f2"/>
        <path id="Rectangle_104-2" data-name="Rectangle 104" d="M3,0H36a0,0,0,0,1,0,0V6a0,0,0,0,1,0,0H3A3,3,0,0,1,0,3V3A3,3,0,0,1,3,0Z" transform="translate(68 12.304)" fill="#f5f5f5"/>
        <path id="Rectangle_105-2" data-name="Rectangle 105" d="M3,0H25a0,0,0,0,1,0,0V6a0,0,0,0,1,0,0H3A3,3,0,0,1,0,3V3A3,3,0,0,1,3,0Z" transform="translate(79 24.304)" fill="#f5f5f5"/>
      </g>
    </g>
  </g>
</svg>
