<svg xmlns="http://www.w3.org/2000/svg" width="1178.67" height="416.22" viewBox="0 0 1178.67 416.22">
  <path id="blob3" d="M950.794,42c98.023,28.576,174.264,69.4,205.486,116.211,30.5,46.811,16.7,99.337-43.566,144.787-60.992,45.45-167.729,83.824-285.357,91.444-117.628,7.348-246.147-16.057-389.189-32.387-142.315-16.329-299.153-25.583-376.845-59.6S-14.917,209.1,35.91,162.561C87.463,116.022,188.391,82,292.223,53.7,396.781,25.667,503.518,3.35,617.515.356S852.771,13.42,950.794,42Z" transform="matrix(1, 0.017, -0.017, 1, 6.908, 0)" fill="#bae6ff" opacity="0.2"/>
</svg>
