<svg xmlns="http://www.w3.org/2000/svg" xmlns:xlink="http://www.w3.org/1999/xlink" width="401" height="240" viewBox="0 0 401 240">
  <defs>
    <filter id="Rectangle_47" x="0" y="2" width="401" height="238" filterUnits="userSpaceOnUse">
      <feOffset dy="3" input="SourceAlpha"/>
      <feGaussianBlur stdDeviation="3" result="blur"/>
      <feFlood flood-opacity="0.161"/>
      <feComposite operator="in" in2="blur"/>
      <feComposite in="SourceGraphic"/>
    </filter>
  </defs>
  <g id="Feedback_Img" data-name="Feedback Img" transform="translate(9 -0.246)">
    <g transform="matrix(1, 0, 0, 1, -9, 0.25)" filter="url(#Rectangle_47)">
      <rect id="Rectangle_47-2" data-name="Rectangle 47" width="383" height="220" rx="5" transform="translate(9 8)" fill="#f9fbfd"/>
    </g>
    <path id="Rectangle_58" data-name="Rectangle 58" d="M5,0H378a5,5,0,0,1,5,5V21a0,0,0,0,1,0,0H0a0,0,0,0,1,0,0V5A5,5,0,0,1,5,0Z" transform="translate(0 0.246)" fill="#2a2a3a"/>
    <path id="Rectangle_78" data-name="Rectangle 78" d="M0,0H333a0,0,0,0,1,0,0V202a5,5,0,0,1-5,5H0a0,0,0,0,1,0,0V0A0,0,0,0,1,0,0Z" transform="translate(50 21.246)" fill="#404053"/>
    <path id="Rectangle_79" data-name="Rectangle 79" d="M0,0H54a0,0,0,0,1,0,0V207a0,0,0,0,1,0,0H5a5,5,0,0,1-5-5V0A0,0,0,0,1,0,0Z" transform="translate(0 21.246)" fill="#fff"/>
    <g id="check_circle_outline-24px" transform="translate(172.471 63.441)">
      <path id="Path_122" data-name="Path 122" d="M0,0H88.141V88.141H0ZM0,0H88.141V88.141H0Z" fill="none"/>
      <path id="Path_123" data-name="Path 123" d="M54.459,22.063,30.764,45.757,17.856,32.886l-5.07,5.07L30.764,55.933,59.528,27.169ZM37.955,2A35.955,35.955,0,1,0,73.91,37.955,35.968,35.968,0,0,0,37.955,2Zm0,64.719A28.764,28.764,0,1,1,66.719,37.955,28.756,28.756,0,0,1,37.955,66.719Z" transform="translate(6.115 6.115)" fill="#64d964"/>
    </g>
    <text id="Complete" transform="translate(165 175.246)" fill="#64d964" font-size="23" font-family="SourceSansPro-Bold, Source Sans Pro" font-weight="700"><tspan x="0" y="0">Complete</tspan></text>
    <g id="Slider_Bar" data-name="Slider Bar" transform="translate(47 21)">
      <rect id="Rectangle_89" data-name="Rectangle 89" width="7" height="207" transform="translate(0 0.246)" fill="#ddd"/>
      <g id="Group_38" data-name="Group 38" transform="translate(2 91)">
        <circle id="Ellipse_25" data-name="Ellipse 25" cx="1.5" cy="1.5" r="1.5" transform="translate(0 0.246)" fill="#767676"/>
        <ellipse id="Ellipse_26" data-name="Ellipse 26" cx="1.5" cy="2" rx="1.5" ry="2" transform="translate(0 4.246)" fill="#767676"/>
        <ellipse id="Ellipse_27" data-name="Ellipse 27" cx="1.5" cy="2" rx="1.5" ry="2" transform="translate(0 9.246)" fill="#767676"/>
      </g>
    </g>
    <g id="Red_Orange_Green" data-name="Red Orange Green" transform="translate(346 9)">
      <circle id="Ellipse_18" data-name="Ellipse 18" cx="2.5" cy="2.5" r="2.5" transform="translate(18 0.246)" fill="#ff5757"/>
      <circle id="Ellipse_19" data-name="Ellipse 19" cx="2.5" cy="2.5" r="2.5" transform="translate(9 0.246)" fill="#ffa557"/>
      <circle id="Ellipse_20" data-name="Ellipse 20" cx="2.5" cy="2.5" r="2.5" transform="translate(0 0.246)" fill="#43db4e"/>
    </g>
  </g>
</svg>
