<svg xmlns="http://www.w3.org/2000/svg" xmlns:xlink="http://www.w3.org/1999/xlink" width="401" height="246" viewBox="0 0 401 246">
  <defs>
    <filter id="Rectangle_47" x="0" y="0" width="401" height="246" filterUnits="userSpaceOnUse">
      <feOffset dy="3" input="SourceAlpha"/>
      <feGaussianBlur stdDeviation="3" result="blur"/>
      <feFlood flood-opacity="0.161"/>
      <feComposite operator="in" in2="blur"/>
      <feComposite in="SourceGraphic"/>
    </filter>
  </defs>
  <g id="Videos_Img" data-name="Videos Img" transform="translate(9 5.638)">
    <g transform="matrix(1, 0, 0, 1, -9, -5.64)" filter="url(#Rectangle_47)">
      <rect id="Rectangle_47-2" data-name="Rectangle 47" width="383" height="228" rx="5" transform="translate(9 6)" fill="#f9fbfd"/>
    </g>
    <path id="Rectangle_58" data-name="Rectangle 58" d="M5,0H378a5,5,0,0,1,5,5V22a0,0,0,0,1,0,0H0a0,0,0,0,1,0,0V5A5,5,0,0,1,5,0Z" transform="translate(0 0.362)" fill="#2a2a3a"/>
    <path id="Rectangle_78" data-name="Rectangle 78" d="M0,0H191a0,0,0,0,1,0,0V201a5,5,0,0,1-5,5H0a0,0,0,0,1,0,0V0A0,0,0,0,1,0,0Z" transform="translate(192 22.362)" fill="#404053"/>
    <path id="Path_140" data-name="Path 140" d="M0,0H195.258V206.6H4.051A4.051,4.051,0,0,1,0,202.549Z" transform="translate(0 21.783)" fill="#fff"/>
    <g id="Play_Button" data-name="Play Button" transform="translate(66 89)">
      <ellipse id="Ellipse_17" data-name="Ellipse 17" cx="30" cy="29.5" rx="30" ry="29.5" transform="translate(0 0.362)" fill="#57bafc"/>
      <path id="Path_141" data-name="Path 141" d="M14.5,0,29,26H0Z" transform="translate(48 15.908) rotate(90)" fill="#f9fbfd"/>
    </g>
    <g id="Red_Orange_Green" data-name="Red Orange Green" transform="translate(347 9)">
      <circle id="Ellipse_18" data-name="Ellipse 18" cx="2.5" cy="2.5" r="2.5" transform="translate(18 0.362)" fill="#ff5757"/>
      <circle id="Ellipse_19" data-name="Ellipse 19" cx="2.5" cy="2.5" r="2.5" transform="translate(9 0.362)" fill="#ffa557"/>
      <circle id="Ellipse_20" data-name="Ellipse 20" cx="2.5" cy="2.5" r="2.5" transform="translate(0 0.362)" fill="#43db4e"/>
    </g>
    <g id="Slider_Bar" data-name="Slider Bar" transform="translate(188 22)">
      <rect id="Rectangle_89" data-name="Rectangle 89" width="7" height="206" transform="translate(0 0.362)" fill="#ddd"/>
      <g id="Group_38" data-name="Group 38" transform="translate(2 90)">
        <g id="Ellipse_25" data-name="Ellipse 25" transform="translate(0 0.362)" fill="#767676" stroke="#707070" stroke-width="1">
          <ellipse cx="2" cy="1.5" rx="2" ry="1.5" stroke="none"/>
          <ellipse cx="2" cy="1.5" rx="1.5" ry="1" fill="none"/>
        </g>
        <g id="Ellipse_26" data-name="Ellipse 26" transform="translate(0 5.362)" fill="#767676" stroke="#707070" stroke-width="1">
          <ellipse cx="2" cy="1.5" rx="2" ry="1.5" stroke="none"/>
          <ellipse cx="2" cy="1.5" rx="1.5" ry="1" fill="none"/>
        </g>
        <g id="Ellipse_27" data-name="Ellipse 27" transform="translate(0 10.362)" fill="#767676" stroke="#707070" stroke-width="1">
          <ellipse cx="2" cy="1.5" rx="2" ry="1.5" stroke="none"/>
          <ellipse cx="2" cy="1.5" rx="1.5" ry="1" fill="none"/>
        </g>
      </g>
    </g>
    <g id="Code_Text_" data-name="Code Text " transform="translate(215 34)" opacity="0.8">
      <g id="Group_44" data-name="Group 44">
        <rect id="Rectangle_93" data-name="Rectangle 93" width="31" height="6" rx="3" transform="translate(0 0.362)" fill="#4db0f2"/>
        <rect id="Rectangle_94" data-name="Rectangle 94" width="53" height="6" rx="3" transform="translate(42 0.362)" fill="#4db0f2"/>
        <rect id="Rectangle_95" data-name="Rectangle 95" width="31" height="6" rx="3" transform="translate(0 72.362)" fill="#4db0f2"/>
        <rect id="Rectangle_96" data-name="Rectangle 96" width="53" height="6" rx="3" transform="translate(42 72.362)" fill="#4db0f2"/>
        <rect id="Rectangle_97" data-name="Rectangle 97" width="49" height="6" rx="3" transform="translate(8 12.362)" fill="#4db0f2"/>
        <rect id="Rectangle_98" data-name="Rectangle 98" width="31" height="6" rx="3" transform="translate(68 12.362)" fill="#f5f5f5"/>
        <rect id="Rectangle_99" data-name="Rectangle 99" width="38" height="6" rx="3" transform="translate(79 24.362)" fill="#f5f5f5"/>
        <rect id="Rectangle_100" data-name="Rectangle 100" width="42" height="6" rx="3" transform="translate(26 24.362)" fill="#4db0f2"/>
        <rect id="Rectangle_101" data-name="Rectangle 101" width="52" height="6" rx="3" transform="translate(47 36.362)" fill="#f5f5f5"/>
        <rect id="Rectangle_102" data-name="Rectangle 102" width="42" height="6" rx="3" transform="translate(26 48.362)" fill="#4db0f2"/>
        <rect id="Rectangle_103" data-name="Rectangle 103" width="49" height="6" rx="3" transform="translate(8 60.362)" fill="#4db0f2"/>
        <rect id="Rectangle_104" data-name="Rectangle 104" width="31" height="6" rx="3" transform="translate(68 60.362)" fill="#f5f5f5"/>
        <rect id="Rectangle_105" data-name="Rectangle 105" width="38" height="6" rx="3" transform="translate(79 48.362)" fill="#f5f5f5"/>
        <rect id="Rectangle_106" data-name="Rectangle 106" width="42" height="6" rx="3" transform="translate(110 36.362)" fill="#4db0f2"/>
        <rect id="Rectangle_107" data-name="Rectangle 107" width="31" height="6" rx="3" transform="translate(110 12.362)" fill="#4db0f2"/>
      </g>
      <g id="Group_45" data-name="Group 45" transform="translate(0 84)">
        <rect id="Rectangle_93-2" data-name="Rectangle 93" width="31" height="6" rx="3" transform="translate(0 72.362)" fill="#4db0f2"/>
        <rect id="Rectangle_94-2" data-name="Rectangle 94" width="53" height="6" rx="3" transform="translate(42 72.362)" fill="#4db0f2"/>
        <rect id="Rectangle_95-2" data-name="Rectangle 95" width="31" height="6" rx="3" transform="translate(0 0.362)" fill="#4db0f2"/>
        <rect id="Rectangle_96-2" data-name="Rectangle 96" width="53" height="6" rx="3" transform="translate(42 0.362)" fill="#4db0f2"/>
        <rect id="Rectangle_97-2" data-name="Rectangle 97" width="49" height="6" rx="3" transform="translate(8 60.362)" fill="#4db0f2"/>
        <rect id="Rectangle_98-2" data-name="Rectangle 98" width="31" height="6" rx="3" transform="translate(68 60.362)" fill="#f5f5f5"/>
        <rect id="Rectangle_99-2" data-name="Rectangle 99" width="38" height="6" rx="3" transform="translate(79 48.362)" fill="#f5f5f5"/>
        <rect id="Rectangle_100-2" data-name="Rectangle 100" width="42" height="6" rx="3" transform="translate(26 48.362)" fill="#4db0f2"/>
        <rect id="Rectangle_101-2" data-name="Rectangle 101" width="52" height="6" rx="3" transform="translate(47 36.362)" fill="#f5f5f5"/>
        <rect id="Rectangle_102-2" data-name="Rectangle 102" width="42" height="6" rx="3" transform="translate(26 24.362)" fill="#4db0f2"/>
        <rect id="Rectangle_103-2" data-name="Rectangle 103" width="49" height="6" rx="3" transform="translate(8 12.362)" fill="#4db0f2"/>
        <rect id="Rectangle_104-2" data-name="Rectangle 104" width="54" height="6" rx="3" transform="translate(68 12.362)" fill="#f5f5f5"/>
        <rect id="Rectangle_105-2" data-name="Rectangle 105" width="58" height="6" rx="3" transform="translate(79 24.362)" fill="#f5f5f5"/>
        <rect id="Rectangle_106-2" data-name="Rectangle 106" width="42" height="6" rx="3" transform="translate(110 36.362)" fill="#4db0f2"/>
        <rect id="Rectangle_107-2" data-name="Rectangle 107" width="31" height="6" rx="3" transform="translate(110 60.362)" fill="#4db0f2"/>
        <rect id="Rectangle_108" data-name="Rectangle 108" width="31" height="6" rx="3" transform="translate(106 0.362)" fill="#4db0f2"/>
      </g>
    </g>
  </g>
</svg>
